<?xml version="1.0" encoding="UTF-8" standalone="no"?>
<svg role="presentation" width="450px" height="318px" viewBox="0 0 450 318" version="1.1" xmlns="http://www.w3.org/2000/svg" xmlns:xlink="http://www.w3.org/1999/xlink" xmlns:sketch="http://www.bohemiancoding.com/sketch/ns">
    <!-- Generator: Sketch 3.3.2 (12043) - http://www.bohemiancoding.com/sketch -->
    <title>Group</title>
    <desc>Created with Sketch.</desc>
    <defs></defs>
    <g id="Page-1" stroke="none" stroke-width="1" fill="none" fill-rule="evenodd" sketch:type="MSPage">
        <g id="Group" sketch:type="MSLayerGroup">
            <path d="M0.000630783987,126 C0.000630783987,126 -0.878467516,66.3186403 62.9998981,63 C62.9998981,63 63.472778,122.448034 0.000630783987,126" id="Fill-38" fill="#134276" sketch:type="MSShapeGroup" transform="translate(31.500000, 94.500000) scale(-1, 1) translate(-31.500000, -94.500000) "></path>
            <path d="M63,190.999897 C63.0020833,190.999897 3.54571608,191.47486 0,128.000635 C0,128.000635 59.6792765,127.119454 63,190.999897" id="Fill-39" fill="#017AC9" sketch:type="MSShapeGroup" transform="translate(31.500000, 159.500000) scale(-1, 1) translate(-31.500000, -159.500000) "></path>
            <path d="M65.0000993,191 C65.0000993,191 64.5314321,131.549765 127.999378,128 C127.999378,128 128.874223,187.677303 65.0000993,191" id="Fill-40" fill="#F75C58" sketch:type="MSShapeGroup" transform="translate(96.500000, 159.500000) scale(-1, 1) translate(-96.500000, -159.500000) "></path>
            <path d="M450,317.999894 C450,317.999894 390.54953,318.479008 387,255.000626 C387,255.000626 446.677523,254.12364 450,317.999894" id="Fill-43" fill="#134276" sketch:type="MSShapeGroup" transform="translate(418.500000, 286.500000) scale(-1, 1) translate(-418.500000, -286.500000) "></path>
            <path d="M258.000631,254 C258.000631,254 257.12159,194.322587 320.999901,191 C320.999901,191 321.468583,250.450352 258.000631,254" id="Fill-46" fill="#00BBA1" sketch:type="MSShapeGroup" transform="translate(289.500000, 222.500000) scale(-1, 1) translate(-289.500000, -222.500000) "></path>
            <path d="M191,317.999894 C191,317.999894 131.553932,318.479008 128,255.000626 C128,255.000626 187.683553,254.12364 191,317.999894" id="Fill-51" fill="#134276" sketch:type="MSShapeGroup" transform="translate(159.500000, 286.500000) scale(-1, 1) translate(-159.500000, -286.500000) "></path>
            <path d="M193.000102,318 C193.000102,318 192.527238,258.551848 255.999374,255 C255.999374,255 256.87636,314.683553 193.000102,318" id="Fill-52" fill="#3A54A1" sketch:type="MSShapeGroup" transform="translate(224.500000, 286.500000) scale(-1, 1) translate(-224.500000, -286.500000) "></path>
            <path d="M193,191.000103 C193,191.000103 252.450117,190.525156 256,253.999374 C256,253.999374 196.316557,254.87636 193,191.000103" id="Fill-53" fill="#F75C58" sketch:type="MSShapeGroup" transform="translate(224.500000, 222.500000) scale(-1, 1) translate(-224.500000, -222.500000) "></path>
            <path d="M0.000630783987,254 C0.000630783987,254 -0.878467516,194.322587 62.9998981,191 C62.9998981,191 63.472778,250.450352 0.000630783987,254" id="Fill-54" fill="#00BBA1" sketch:type="MSShapeGroup" transform="translate(31.500000, 222.500000) scale(-1, 1) translate(-31.500000, -222.500000) "></path>
            <path d="M63,317.999894 C63.0020833,317.999894 3.54571608,318.479008 0,255.000626 C0,255.000626 59.6792765,254.12364 63,317.999894" id="Fill-55" fill="#134276" sketch:type="MSShapeGroup" transform="translate(31.500000, 286.500000) scale(-1, 1) translate(-31.500000, -286.500000) "></path>
            <path d="M65.0000993,318 C65.0000993,318 64.5314321,258.551848 127.999378,255 C127.999378,255 128.874223,314.683553 65.0000993,318" id="Fill-56" fill="#F75C58" sketch:type="MSShapeGroup" transform="translate(96.500000, 286.500000) scale(-1, 1) translate(-96.500000, -286.500000) "></path>
            <path d="M65.0000993,126 C65.0000993,126 64.5314321,66.5475647 127.999378,63 C127.999378,63 128.874223,122.679496 65.0000993,126" id="Fill-114-Copy-2" fill="#00BBA1" sketch:type="MSShapeGroup" transform="translate(96.500000, 94.500000) scale(-1, -1) translate(-96.500000, -94.500000) "></path>
            <path d="M63,62.999894 C63,62.999894 3.54953049,63.4790076 0,0.000626369169 C0,0.000626369169 59.6775228,-0.876359766 63,62.999894" id="Fill-267" fill="#F75C58" sketch:type="MSShapeGroup" transform="translate(31.500000, 31.500000) scale(-1, 1) translate(-31.500000, -31.500000) "></path>
            <path d="M256,126.000101 C256,126.000101 315.446303,125.529366 319,188.999387 C319,188.999387 259.320394,189.870037 256,126.000101" id="Fill-289" fill="#017AC9" sketch:type="MSShapeGroup" transform="translate(287.500000, 157.500000) scale(-1, 1) translate(-287.500000, -157.500000) "></path>
        </g>
    </g>
</svg>